PathFileType	4	(X/Y/Z)	c:/Users/goper/Files/vsCode/490R/osim_files/C06/C06_Fast_02.trc
DataRate	CameraRate	NumFrames	NumMarkers	Units                	OrigDataRate	OrigDataStartFrame	OrigNumFrames
250.00	250.00	6	36	mm	250.0	2202	3522
                Frame#	Time	LPSIS			LASIS			LTH1			LTH2			LTH3			LTH4			LLFE			LMFE			LSH1			LSH2			LSH3			LSH4			LLMAL			LMMAL			LCAL			LMTP5			LTOE			LMTP1			RPSIS			RASIS			RTH1			RTH2			RTH3			RTH4			RLFE			RMFE			RSH1			RSH2			RSH3			RSH4			RLMAL			RMMAL			RCAL			RMTP1			RTOE			RMTP5		
		X1	Y1	Z1	X2	Y2	Z2	X3	Y3	Z3	X4	Y4	Z4	X5	Y5	Z5	X6	Y6	Z6	X7	Y7	Z7	X8	Y8	Z8	X9	Y9	Z9	X10	Y10	Z10	X11	Y11	Z11	X12	Y12	Z12	X13	Y13	Z13	X14	Y14	Z14	X15	Y15	Z15	X16	Y16	Z16	X17	Y17	Z17	X18	Y18	Z18	X19	Y19	Z19	X20	Y20	Z20	X21	Y21	Z21	X22	Y22	Z22	X23	Y23	Z23	X24	Y24	Z24	X25	Y25	Z25	X26	Y26	Z26	X27	Y27	Z27	X28	Y28	Z28	X29	Y29	Z29	X30	Y30	Z30	X31	Y31	Z31	X32	Y32	Z32	X33	Y33	Z33	X34	Y34	Z34	X35	Y35	Z35	X36	Y36	Z36

2202	8.80400	-1178.15735	1008.85944	181.72467	-1352.73889	991.60205	274.90018	-1339.18005	783.19592	351.77615	-1371.06238	728.40979	351.62161	-1406.16467	815.45776	334.26028	-1429.15308	757.91620	336.53809	-1478.77625	505.09247	307.76767	-1488.65784	488.58835	193.21591	-1382.98621	418.63943	315.58765	-1377.27209	374.77646	313.22150	-1444.96411	402.18213	320.95200	-1428.40015	361.19983	317.01389	-1324.81775	138.71658	265.44083	-1352.72986	158.57181	192.23096	-1266.15625	135.85406	207.07629	-1405.00330	47.16822	306.63837	-1472.53638	53.25789	254.57979	-1450.77368	45.99903	202.78961	-1175.95508	1008.88397	111.45796	-1359.07080	983.26550	41.65525	-1268.55090	782.19360	-36.85839	-1274.81238	720.17926	-26.24788	-1342.20239	785.88361	-16.85523	-1338.15198	723.14813	-9.90199	-1251.99487	456.23138	38.06691	-1263.75891	473.15918	142.58218	-1185.90894	388.21417	19.30217	-1179.61462	340.78183	21.62246	-1243.02734	371.77701	32.83041	-1229.09521	327.14111	33.98395	-1149.54395	96.17590	78.83585	-1162.71680	119.70619	154.28203	-1076.62134	71.96562	123.07483	-1283.15930	34.22544	162.39742	-1305.23474	54.00813	118.17934	-1257.38367	34.97054	50.96100
2203	8.80800	-1183.29797	1008.16315	181.91792	-1358.10132	991.21387	274.71158	-1345.42285	783.02899	351.93085	-1377.73975	728.37146	351.71805	-1412.29382	815.70123	334.27908	-1435.28625	758.03851	336.34613	-1486.67737	505.76050	307.17764	-1496.31689	489.31143	192.66260	-1392.70312	416.23502	314.85593	-1387.19702	371.78497	312.06024	-1455.47266	401.91428	320.54248	-1439.90820	360.57867	316.60422	-1342.50049	135.13577	265.33170	-1370.03284	155.71295	192.10048	-1284.81030	130.15198	206.17706	-1425.10071	45.85134	306.72305	-1492.55212	53.69981	254.90605	-1470.97595	45.19066	203.49020	-1181.17883	1008.11353	111.67797	-1364.29773	982.53918	41.54075	-1272.58093	781.98169	-37.09368	-1278.45496	719.90643	-26.48517	-1346.43555	785.13580	-16.76697	-1341.80640	722.45465	-10.03067	-1253.24438	456.16354	38.01022	-1265.35522	472.98520	142.43643	-1186.93591	388.42795	19.23389	-1180.40771	341.04730	21.54612	-1243.94836	371.80270	32.71622	-1229.90479	327.16122	33.93011	-1149.62915	96.42561	78.90838	-1163.02393	119.96860	154.35785	-1076.70984	72.14551	123.19362	-1282.85632	34.24974	162.41838	-1305.59521	53.79446	118.39441	-1257.42175	34.98811	51.01920
2204	8.81200	-1188.65576	1007.35193	182.11809	-1363.58093	990.66888	274.61984	-1351.95911	782.59607	352.11926	-1384.32666	728.32263	351.73526	-1418.38794	815.76801	334.36957	-1441.70581	758.26984	336.33899	-1494.37317	506.36996	306.65054	-1504.02747	489.89822	192.08473	-1402.55505	414.02725	314.77249	-1398.28198	369.46545	311.84250	-1465.57336	401.55234	320.17807	-1451.40723	359.72968	316.13541	-1360.36523	131.73938	265.23114	-1387.44067	152.95403	191.91269	-1302.76123	125.13586	205.87158	-1445.11011	44.78415	306.87665	-1512.06494	54.64966	255.40482	-1491.95691	46.48153	203.03625	-1186.40100	1007.37292	111.97012	-1369.37256	981.83893	41.37109	-1276.58716	781.65149	-37.33640	-1282.10181	719.57806	-26.72498	-1350.38062	784.41205	-16.92280	-1345.32556	721.74445	-10.18395	-1254.43213	456.13058	37.91190	-1266.57947	472.84036	142.33902	-1187.93616	388.60623	19.14899	-1181.21838	341.25781	21.55052	-1244.84155	371.76898	32.63277	-1230.69055	327.26315	33.90932	-1149.76746	96.62293	79.00476	-1163.30750	120.20088	154.47264	-1076.77209	72.35131	123.36032	-1282.91711	34.20477	162.45456	-1305.68420	53.75259	118.43199	-1257.46692	35.03770	51.08346
2205	8.81600	-1193.93823	1006.52173	182.37012	-1368.54688	990.03424	274.49445	-1358.20789	782.24371	352.30643	-1390.92419	728.10107	351.80017	-1424.47070	815.81360	334.45447	-1448.27063	758.43054	336.34088	-1502.11243	506.70764	306.10812	-1511.49573	490.43051	191.52119	-1412.57104	411.67432	314.80225	-1409.29956	366.90991	311.53812	-1476.00635	401.07584	319.91339	-1462.93298	358.85989	315.85962	-1378.12244	128.45749	265.18054	-1404.64844	150.28741	191.77115	-1320.81848	120.31021	205.72820	-1465.26599	43.91838	306.95563	-1532.44507	55.27049	255.49208	-1511.86792	46.84795	202.95363	-1191.59827	1006.58453	112.28088	-1374.45972	981.05499	41.19867	-1280.59534	781.33417	-37.62790	-1285.66235	719.20892	-26.98339	-1354.42627	783.68896	-17.14490	-1348.97034	721.01880	-10.38300	-1255.81250	456.05930	37.88691	-1268.07715	472.66745	142.22569	-1188.73450	388.81918	19.12954	-1181.99158	341.48380	21.55778	-1245.87939	371.60034	32.20344	-1231.35144	327.28052	33.84759	-1149.89990	96.82213	79.13616	-1163.58496	120.41764	154.59465	-1076.85706	72.48266	123.53159	-1282.94177	34.17451	162.49384	-1305.77234	53.69822	118.47675	-1257.21606	35.35477	50.92990
2206	8.82000	-1199.17212	1005.64813	182.61842	-1374.41260	989.49933	274.37070	-1364.30688	781.83679	352.39859	-1397.48962	727.88708	351.78860	-1430.55884	815.74567	334.54132	-1454.47864	758.48151	336.37308	-1509.51880	507.00342	305.59698	-1518.88477	490.67166	190.86528	-1422.45056	409.23062	314.87308	-1420.09119	364.08334	311.11020	-1486.20703	400.49448	319.65469	-1474.44690	357.92493	315.56784	-1395.76404	124.96281	264.90146	-1421.71753	147.88116	191.56306	-1338.79077	115.72313	205.63051	-1485.33557	43.29026	307.03232	-1551.52698	55.52231	256.22757	-1532.02051	47.18544	203.21530	-1196.77490	1005.76746	112.52849	-1379.57336	980.21899	41.08368	-1284.62256	780.99213	-37.90413	-1289.31982	718.86963	-27.28297	-1358.37512	782.94427	-17.31819	-1352.54968	720.26410	-10.58091	-1257.06079	456.00122	37.74685	-1269.46301	472.50006	142.03932	-1189.75146	389.02695	19.07727	-1182.70129	341.71646	21.54466	-1245.81323	370.38971	33.60087	-1232.08081	327.35010	33.75919	-1150.04724	97.01435	79.28588	-1163.56262	120.70049	154.91341	-1076.93774	72.60600	123.69848	-1282.43945	34.32653	162.64662	-1305.81531	53.65350	118.50902	-1257.24133	35.41026	50.96963
2207	8.82400	-1204.48547	1004.69513	182.86713	-1379.67908	988.83508	274.31366	-1370.49817	781.33838	352.49518	-1403.97815	727.58905	351.84970	-1436.67529	815.54370	334.53638	-1460.69177	758.33911	336.31485	-1516.96155	507.04404	305.11093	-1526.04077	490.93829	190.37122	-1432.50696	406.67694	314.94794	-1431.24463	361.42596	311.04248	-1496.43274	399.75699	319.42703	-1485.94934	356.90100	315.32693	-1413.51233	122.05074	264.76602	-1439.23413	145.39343	191.52788	-1356.94067	111.17626	205.38290	-1505.46631	42.99128	306.99026	-1571.78357	60.60279	253.72375	-1552.08057	47.92594	203.25233	-1201.95422	1004.90125	112.88104	-1384.58313	979.31927	40.88158	-1288.37769	780.63623	-38.31844	-1292.94849	718.45447	-27.52706	-1362.31836	782.10010	-17.44595	-1356.11597	719.51990	-10.73670	-1258.38416	455.94858	37.71815	-1270.76575	472.39908	141.91032	-1190.56958	389.23007	19.10033	-1183.41382	341.91290	21.57563	-1246.96448	370.43475	33.47611	-1230.88696	325.91403	33.49193	-1150.24646	97.21456	79.45294	-1163.78796	120.90566	154.98781	-1076.96582	72.75774	123.88871	-1282.44226	34.28105	162.65572	-1305.92065	53.66702	118.33468	-1257.26721	35.45381	51.03614
